<svg xmlns="http://www.w3.org/2000/svg" width="1242" height="995" fill="none" viewBox="0 0 1242 995">
    <path fill="url(#paint0_linear)" d="M836.617 761.7l-274.8 230 77.1 3.3 298.5-164.2-31.8-107.8-69 38.7z"/>
    <path fill="url(#paint1_linear)" d="M905.517 723.6l31.9 107.2-752.2-53.7 33.2-132.8 687.1 79.3z"/>
    <path fill="url(#paint2_linear)" d="M122.517 599.2l723.3-197.4 312.503-92.5 82.7 254.6-1055.403 213-119-57.7 55.9-120z"/>
    <path fill="url(#paint3_linear)" d="M.317 0h811.4l346.603 309.1 82.7 254.7-395.303-162.1L.317 0z"/>
    <defs>
        <linearGradient id="paint0_linear" x1="817.902" x2="525.049" y1="671.012" y2="897.5" gradientUnits="userSpaceOnUse">
            <stop stop-color="#2ACEF4"/>
            <stop offset="1" stop-color="#32DBBA"/>
        </linearGradient>
        <linearGradient id="paint1_linear" x1="963.481" x2="182.96" y1="642.106" y2="575.646" gradientUnits="userSpaceOnUse">
            <stop stop-color="#2ACEF4"/>
            <stop offset="1" stop-color="#2BBFE2"/>
        </linearGradient>
        <linearGradient id="paint2_linear" x1="1136.24" x2="149.308" y1="320.144" y2="541.788" gradientUnits="userSpaceOnUse">
            <stop stop-color="#0C75E8"/>
            <stop offset="1" stop-color="#2BBFE2"/>
        </linearGradient>
        <linearGradient id="paint3_linear" x1="1213.14" x2="421.544" y1="84.989" y2="-257.94" gradientUnits="userSpaceOnUse">
            <stop stop-color="#0C75E8"/>
            <stop offset="1" stop-color="#2A5EC9"/>
        </linearGradient>
    </defs>
</svg>
