<?xml version="1.0" encoding="UTF-8"?> <svg xmlns="http://www.w3.org/2000/svg" width="1121" height="590" viewBox="0 0 1121 590" fill="none"><g clip-path="url(#clip0_256_27106)"><rect width="1121" height="590" fill="url(#paint0_linear_256_27106)"></rect><path d="M1242.86 702.905L743.159 702.359C669.552 702.279 601.344 662.549 564.729 598.492C528.115 534.434 528.547 455.643 565.8 392.444L816.999 -33.6349C853.735 -96.3166 921.08 -134.602 993.651 -134.523L994.169 -134.522C1067 -134.183 1134.43 -95.2325 1171.04 -32.2115L1419.8 394.672C1456.94 458.212 1457.02 536.485 1420.55 600.463C1384.33 663.664 1316.47 702.985 1242.86 702.905Z" fill="url(#paint1_linear_256_27106)" fill-opacity="0.4"></path></g><defs><linearGradient id="paint0_linear_256_27106" x1="952.949" y1="612.617" x2="246.224" y2="25.3454" gradientUnits="userSpaceOnUse"><stop stop-color="#E4E4E4"></stop><stop offset="1" stop-color="#F7F7F7"></stop></linearGradient><linearGradient id="paint1_linear_256_27106" x1="1724.98" y1="306.02" x2="865.901" y2="470.429" gradientUnits="userSpaceOnUse"><stop stop-color="#AC96E4" stop-opacity="0.8"></stop><stop offset="1" stop-color="#DAD8FC"></stop></linearGradient><clipPath id="clip0_256_27106"><rect width="1121" height="590" fill="white"></rect></clipPath></defs></svg> 