<?xml version="1.0" encoding="UTF-8"?> <svg xmlns="http://www.w3.org/2000/svg" width="860" height="367" viewBox="0 0 860 367" fill="none"><mask id="mask0_1761_61136" style="mask-type:alpha" maskUnits="userSpaceOnUse" x="-868" y="0" width="2596" height="369"><rect x="-867.985" width="2595.97" height="368.571" fill="url(#paint0_linear_1761_61136)"></rect></mask><g mask="url(#mask0_1761_61136)"><path d="M442.285 106.828C442.285 68.3817 473.448 37.2186 511.895 37.2186C512.9 37.2186 513.888 37.2539 514.876 37.2891C525.246 3.39246 556.779 -21.2805 594.079 -21.2805C637.024 -21.2805 672.313 11.3993 676.493 53.2322C678.363 53.0559 680.267 52.9677 682.172 52.9677C715.998 52.9677 743.422 80.3919 743.422 114.218C743.422 147.462 716.933 174.498 683.918 175.433C682.172 175.592 510.414 176.244 500.608 175.521C494.065 174.975 487.928 173.017 482.513 169.948C458.757 158.855 442.285 134.764 442.285 106.828Z" fill="url(#paint1_linear_1761_61136)" fill-opacity="0.4"></path><path d="M-255.32 -27.114C-255.32 -78.3768 -213.769 -119.928 -162.506 -119.928C-161.166 -119.928 -159.849 -119.881 -158.532 -119.834C-144.705 -165.03 -102.66 -197.927 -52.926 -197.927C4.33319 -197.927 51.3868 -154.354 56.9599 -98.5763C59.4525 -98.8114 61.9922 -98.929 64.5318 -98.929C109.634 -98.929 146.2 -62.3631 146.2 -17.2612C146.2 27.0648 110.88 63.1134 66.8598 64.3597C64.5318 64.5713 -164.482 65.4414 -177.556 64.4772C-186.28 63.7483 -194.463 61.1381 -201.682 57.0465C-233.357 42.2555 -255.32 10.1339 -255.32 -27.114Z" fill="url(#paint2_linear_1761_61136)" fill-opacity="0.4"></path><path d="M798.185 287.996H551.895C544.872 287.996 539.176 282.3 539.176 275.276V107.286C539.176 100.263 544.872 94.5663 551.895 94.5663H798.185C805.208 94.5663 810.904 100.263 810.904 107.286V275.294C810.904 282.3 805.208 287.996 798.185 287.996Z" fill="url(#paint3_linear_1761_61136)"></path><path d="M324.722 335.952L321.054 330.269C316.093 322.544 307.542 317.868 298.345 317.868H200.125C185.193 317.868 173.103 329.959 173.103 344.891V566.236C173.103 581.168 185.193 593.258 200.125 593.258H486.52C501.452 593.258 513.542 581.168 513.542 566.236V375.401C513.542 360.469 501.452 348.378 486.52 348.378H347.456C338.259 348.378 329.708 343.702 324.722 335.952Z" fill="url(#paint4_linear_1761_61136)" fill-opacity="0.6"></path><path d="M756.129 336.799H596.198C589.654 336.799 584.419 331.564 584.419 325.02C584.419 318.476 589.654 313.241 596.198 313.241H756.129C762.673 313.241 767.908 318.476 767.908 325.02C767.908 331.564 762.673 336.799 756.129 336.799Z" fill="#886BBB" fill-opacity="0.8"></path><path d="M664.043 147.512C664.043 142.005 666.135 136.498 670.35 132.283C678.749 123.885 692.408 123.885 700.807 132.283L777.166 208.642L855.801 130.007C864.2 121.608 877.859 121.608 886.258 130.007C894.657 138.406 894.657 152.065 886.258 160.464L792.394 254.328C783.995 262.727 770.336 262.727 761.937 254.328L670.35 162.741C666.135 158.526 664.043 153.019 664.043 147.512Z" fill="#E1D6F9" fill-opacity="0.8"></path><path d="M12.2861 60.5362C12.2861 58.1936 13.1761 55.8509 14.9691 54.0579C18.542 50.4849 24.353 50.4849 27.9259 54.0579L60.4095 86.5415L93.8616 53.0894C97.4345 49.5164 103.245 49.5164 106.818 53.0894C110.391 56.6623 110.391 62.4732 106.818 66.0462L66.8879 105.977C63.315 109.55 57.504 109.55 53.9311 105.977L14.9691 67.0146C13.1761 65.2216 12.2861 62.8789 12.2861 60.5362Z" fill="#C6B1EA" fill-opacity="0.4"></path><path d="M50.6228 -48.2587L50.6228 59.7122C50.6228 64.8493 54.7859 69.0258 59.9364 69.0258C65.0736 69.0258 69.25 64.8626 69.25 59.7122L69.25 -48.2587C69.25 -53.3958 65.0869 -57.5723 59.9364 -57.5723C54.7859 -57.5723 50.6228 -53.3958 50.6228 -48.2587Z" fill="#C6B1EA" fill-opacity="0.4"></path></g><defs><linearGradient id="paint0_linear_1761_61136" x1="430" y1="184.286" x2="431.347" y2="353.424" gradientUnits="userSpaceOnUse"><stop offset="0.40916" stop-color="white"></stop><stop offset="1" stop-color="white" stop-opacity="0"></stop></linearGradient><linearGradient id="paint1_linear_1761_61136" x1="577.18" y1="-117.901" x2="461.702" y2="151.553" gradientUnits="userSpaceOnUse"><stop stop-color="#6E35D1"></stop><stop offset="1" stop-color="#A6D1EE"></stop></linearGradient><linearGradient id="paint2_linear_1761_61136" x1="-511.701" y1="-66.5028" x2="93.2" y2="99.1854" gradientUnits="userSpaceOnUse"><stop stop-color="#6E35D1"></stop><stop offset="1" stop-color="#A6D1EE"></stop></linearGradient><linearGradient id="paint3_linear_1761_61136" x1="638.294" y1="78.8751" x2="728.883" y2="293.412" gradientUnits="userSpaceOnUse"><stop stop-color="#391F6E" stop-opacity="0.8"></stop><stop offset="1" stop-color="#81CAFB"></stop></linearGradient><linearGradient id="paint4_linear_1761_61136" x1="325.603" y1="182.894" x2="141.332" y2="530.86" gradientUnits="userSpaceOnUse"><stop stop-color="#6E35D1"></stop><stop offset="1" stop-color="#A6D1EE"></stop></linearGradient></defs></svg> 